<svg xmlns="http://www.w3.org/2000/svg" fill="none" viewBox="0 0 48 48"><path stroke-linejoin="round" stroke-linecap="round" stroke-width="3" stroke="#333" d="M42 18v22a2 2 0 0 1-2 2H8a2 2 0 0 1-2-2V18" data-follow-stroke="#333"/><path stroke-linejoin="round" stroke-width="3" stroke="#333" d="M6 8a2 2 0 0 1 2-2h32a2 2 0 0 1 2 2v10H6V8Z" data-follow-stroke="#333"/><path fill="#333" d="M12 14a2 2 0 1 0 0-4 2 2 0 0 0 0 4ZM18 14a2 2 0 1 0 0-4 2 2 0 0 0 0 4ZM24 14a2 2 0 1 0 0-4 2 2 0 0 0 0 4Z" clip-rule="evenodd" fill-rule="evenodd" data-follow-fill="#333"/></svg>