<svg xmlns="http://www.w3.org/2000/svg" fill="none" viewBox="0 0 48 48"><path stroke-linejoin="round" stroke-linecap="round" stroke-width="3" stroke="#333" d="M25 41h13v-7M25 7h13v7M25 34.243V44l-15-5.381V34M25 13.973V4L10 9.381v4.592" data-follow-stroke="#333"/><rect stroke-linejoin="round" stroke-linecap="round" stroke-width="3" stroke="#333" rx="2" height="20" width="40" y="14" x="4" data-follow-stroke="#333"/><path stroke-linecap="round" stroke-width="3" stroke="#333" d="M10 19v10M21 19v10" data-follow-stroke="#333"/><path stroke-linejoin="round" stroke-linecap="round" stroke-width="3" stroke="#333" d="M35 20v8M32 20h6M10 19h3a3 3 0 0 1 3 3v0a3 3 0 0 1-3 3h-3M21 19h3a3 3 0 0 1 3 3v0a3 3 0 0 1-3 3h-3" data-follow-stroke="#333"/></svg>