<svg xmlns="http://www.w3.org/2000/svg" fill="none" viewBox="0 0 48 48"><path stroke-linejoin="round" stroke-linecap="round" stroke-width="3" stroke="#333" d="M42 30v-5.538C42 14.265 33.941 6 24 6S6 14.265 6 24.462V30" data-follow-stroke="#333"/><path stroke-linejoin="round" stroke-width="3" stroke="#333" d="M34 32a4 4 0 0 1 4-4h4v14h-4a4 4 0 0 1-4-4v-6Z" data-follow-stroke="#333"/><path fill="#333" d="M42 32h2a2 2 0 0 1 2 2v2a2 2 0 0 1-2 2h-2v-6ZM6 32H4a2 2 0 0 0-2 2v2a2 2 0 0 0 2 2h2v-6Z" data-follow-fill="#333"/><path stroke-linejoin="round" stroke-width="3" stroke="#333" d="M6 28h4a4 4 0 0 1 4 4v6a4 4 0 0 1-4 4H6V28Z" data-follow-stroke="#333"/></svg>