<svg xmlns="http://www.w3.org/2000/svg" fill="none" viewBox="0 0 48 48"><path stroke-linejoin="round" stroke-width="3" stroke="#333" d="M24 44c11.046 0 20-8.954 20-20S35.046 4 24 4 4 12.954 4 24s8.954 20 20 20Z" data-follow-stroke="#333"/><path stroke-linejoin="round" stroke-width="3" stroke="#333" d="M24 18a3 3 0 1 0 0-6 3 3 0 0 0 0 6ZM24 36a3 3 0 1 0 0-6 3 3 0 0 0 0 6ZM15 27a3 3 0 1 0 0-6 3 3 0 0 0 0 6ZM33 27a3 3 0 1 0 0-6 3 3 0 0 0 0 6Z" data-follow-stroke="#333"/><path stroke-linecap="round" stroke-width="3" stroke="#333" d="M24 44h20" data-follow-stroke="#333"/></svg>