<svg xmlns="http://www.w3.org/2000/svg" fill="none" viewBox="0 0 48 48"><path stroke-linejoin="round" stroke-width="3" stroke="#333" d="M10 42a6 6 0 1 0 0-12 6 6 0 0 0 0 12Z" data-follow-stroke="#333"/><path stroke-linejoin="round" stroke-linecap="round" stroke-width="3" stroke="#333" d="M40.062 8C24 28.433 15.805 38.68 14.242 40.243a6 6 0 0 1-8.485 0" data-follow-stroke="#333"/><path stroke-linejoin="round" stroke-width="3" stroke="#333" d="M38 42a6 6 0 1 0 0-12 6 6 0 0 0 0 12Z" data-follow-stroke="#333"/><path stroke-linejoin="round" stroke-linecap="round" stroke-width="3" stroke="#333" d="M42.242 40.243a6 6 0 0 1-8.485 0C32.195 38.68 24 28.446 8 8" data-follow-stroke="#333"/></svg>